<!-- Generated by IcoMoon.io -->
<svg version="1.1" xmlns="http://www.w3.org/2000/svg" width="32" height="32" viewBox="0 0 32 32">
<title></title>
<g id="icomoon-ignore">
</g>
<path d="M16 2.879c4.276 0 4.782 0.019 6.464 0.094 1.563 0.069 2.407 0.331 2.969 0.55 0.744 0.288 1.282 0.638 1.838 1.194 0.563 0.563 0.906 1.094 1.2 1.838 0.219 0.563 0.481 1.413 0.55 2.969 0.075 1.688 0.094 2.194 0.094 6.464s-0.019 4.782-0.094 6.464c-0.069 1.563-0.331 2.407-0.55 2.969-0.288 0.744-0.638 1.282-1.194 1.838-0.563 0.563-1.094 0.906-1.838 1.2-0.563 0.219-1.413 0.481-2.969 0.55-1.688 0.075-2.194 0.094-6.464 0.094s-4.782-0.019-6.464-0.094c-1.563-0.069-2.407-0.331-2.969-0.55-0.744-0.288-1.282-0.638-1.838-1.194-0.563-0.563-0.906-1.094-1.2-1.838-0.219-0.563-0.481-1.413-0.55-2.969-0.075-1.688-0.094-2.194-0.094-6.464s0.019-4.782 0.094-6.464c0.069-1.563 0.331-2.407 0.55-2.969 0.288-0.744 0.638-1.282 1.194-1.838 0.563-0.563 1.094-0.906 1.838-1.2 0.563-0.219 1.413-0.481 2.969-0.55 1.682-0.075 2.188-0.094 6.464-0.094zM16-0.003c-4.345 0-4.888 0.019-6.595 0.094-1.7 0.075-2.869 0.35-3.882 0.744-1.056 0.413-1.95 0.956-2.838 1.85-0.894 0.888-1.438 1.782-1.85 2.832-0.394 1.019-0.669 2.182-0.744 3.882-0.075 1.713-0.094 2.257-0.094 6.601s0.019 4.888 0.094 6.595c0.075 1.7 0.35 2.869 0.744 3.882 0.413 1.056 0.956 1.95 1.85 2.838 0.888 0.888 1.782 1.438 2.832 1.844 1.019 0.394 2.182 0.669 3.882 0.744 1.707 0.075 2.25 0.094 6.595 0.094s4.888-0.019 6.595-0.094c1.7-0.075 2.869-0.35 3.882-0.744 1.050-0.406 1.944-0.956 2.832-1.844s1.438-1.782 1.844-2.832c0.394-1.019 0.669-2.182 0.744-3.882 0.075-1.707 0.094-2.25 0.094-6.595s-0.019-4.888-0.094-6.595c-0.075-1.7-0.35-2.869-0.744-3.882-0.394-1.063-0.938-1.957-1.832-2.844-0.888-0.888-1.782-1.438-2.832-1.844-1.019-0.394-2.182-0.669-3.882-0.744-1.713-0.081-2.257-0.1-6.601-0.1v0z"></path>
<path d="M16 7.78c-4.538 0-8.22 3.682-8.22 8.22s3.682 8.22 8.22 8.22 8.22-3.682 8.22-8.22c0-4.538-3.682-8.22-8.22-8.22zM16 21.332c-2.944 0-5.332-2.388-5.332-5.332s2.388-5.332 5.332-5.332c2.944 0 5.332 2.388 5.332 5.332s-2.388 5.332-5.332 5.332z"></path>
<path d="M26.465 7.455c0 1.060-0.859 1.919-1.919 1.919s-1.919-0.859-1.919-1.919c0-1.060 0.859-1.919 1.919-1.919s1.919 0.859 1.919 1.919z"></path>
</svg>
