<!-- Generated by IcoMoon.io -->
<svg version="1.1" xmlns="http://www.w3.org/2000/svg" width="960" height="960" viewBox="0 0 960 960">
<title></title>
<g id="icomoon-ignore">
</g>
<path d="M480 86.361c128.275 0 143.466 0.562 193.913 2.813 46.884 2.063 72.202 9.939 89.080 16.503 22.317 8.627 38.445 19.129 55.135 35.819 16.879 16.879 27.193 32.819 36.008 55.135 6.563 16.879 14.44 42.383 16.503 89.080 2.25 50.635 2.813 65.826 2.813 193.913s-0.563 143.466-2.813 193.913c-2.063 46.884-9.939 72.202-16.503 89.080-8.627 22.317-19.129 38.445-35.819 55.135-16.879 16.879-32.819 27.193-55.135 36.008-16.879 6.563-42.383 14.44-89.080 16.503-50.635 2.25-65.826 2.813-193.913 2.813s-143.466-0.563-193.913-2.813c-46.884-2.063-72.202-9.939-89.080-16.503-22.317-8.627-38.445-19.129-55.135-35.819-16.879-16.879-27.193-32.819-36.008-55.135-6.563-16.879-14.44-42.383-16.503-89.080-2.25-50.635-2.813-65.826-2.813-193.913s0.563-143.466 2.813-193.913c2.063-46.884 9.939-72.202 16.503-89.080 8.627-22.317 19.129-38.445 35.819-55.135 16.879-16.879 32.819-27.193 55.135-36.007 16.879-6.563 42.383-14.44 89.080-16.503 50.448-2.25 65.638-2.813 193.913-2.813zM480-0.094c-130.338 0-146.654 0.563-197.851 2.813-51.010 2.25-86.079 10.502-116.46 22.317-31.694 12.378-58.511 28.693-85.142 55.511-26.818 26.631-43.133 53.448-55.511 84.954-11.814 30.568-20.066 65.451-22.317 116.46-2.25 51.385-2.813 67.701-2.813 198.038s0.563 146.654 2.813 197.851c2.25 51.010 10.502 86.079 22.317 116.46 12.378 31.694 28.693 58.511 55.511 85.142 26.631 26.631 53.448 43.133 84.954 55.324 30.568 11.814 65.451 20.066 116.46 22.317 51.198 2.25 67.513 2.813 197.851 2.813s146.654-0.563 197.851-2.813c51.010-2.25 86.079-10.502 116.46-22.317 31.507-12.19 58.324-28.693 84.954-55.324s43.133-53.448 55.324-84.954c11.814-30.568 20.066-65.451 22.317-116.46 2.25-51.198 2.813-67.513 2.813-197.851s-0.563-146.654-2.813-197.851c-2.25-51.010-10.502-86.079-22.317-116.46-11.814-31.882-28.131-58.699-54.948-85.329-26.631-26.631-53.448-43.133-84.954-55.324-30.568-11.814-65.451-20.066-116.46-22.317-51.385-2.438-67.701-3.001-198.038-3.001v0z"></path>
<path d="M480 233.39c-136.151 0-246.61 110.459-246.61 246.61s110.459 246.61 246.61 246.61 246.61-110.459 246.61-246.61c0-136.151-110.459-246.61-246.61-246.61zM480 639.968c-88.329 0-159.968-71.639-159.968-159.968s71.639-159.968 159.968-159.968c88.329 0 159.968 71.639 159.968 159.968s-71.639 159.968-159.968 159.968z"></path>
<path d="M793.936 223.638c0 31.797-25.777 57.574-57.574 57.574s-57.574-25.777-57.574-57.574c0-31.797 25.777-57.574 57.574-57.574s57.574 25.777 57.574 57.574z"></path>
</svg>
